<?xml version="1.0" standalone="no"?>
<!DOCTYPE svg PUBLIC "-//W3C//DTD SVG 20010904//EN"
 "http://www.w3.org/TR/2001/REC-SVG-20010904/DTD/svg10.dtd">
<svg version="1.0" xmlns="http://www.w3.org/2000/svg"
 width="600.000000pt" height="600.000000pt" viewBox="0 0 600.000000 600.000000"
 preserveAspectRatio="xMidYMid meet">

<g transform="translate(0.000000,600.000000) scale(0.100000,-0.100000)"
fill="#000000" stroke="none">
<path d="M2925 5842 c-27 -13 -185 -166 -494 -480 l-454 -460 -381 -4 c-366
-3 -383 -4 -421 -25 -22 -11 -49 -36 -60 -55 -19 -31 -20 -54 -23 -418 l-3
-385 -479 -480 -480 -480 0 -59 0 -59 239 -241 c131 -133 343 -348 472 -479
l234 -239 5 -116 c3 -65 7 -241 8 -392 3 -305 5 -312 72 -357 32 -23 38 -23
374 -25 188 -1 361 -3 385 -4 51 -2 -3 47 594 -544 213 -212 398 -390 410
-397 12 -7 45 -12 73 -13 41 0 59 6 90 29 21 16 239 230 484 475 l445 446 100
0 c55 1 231 2 390 3 l290 2 38 27 c75 51 72 28 75 467 l3 393 474 477 c414
417 474 481 480 514 16 84 29 69 -480 572 l-476 470 -5 360 c-2 198 -7 380 -9
404 -7 59 -38 107 -78 120 -18 5 -207 11 -421 14 l-388 4 -472 472 -471 471
-50 6 c-37 3 -61 0 -90 -14z m241 -305 c28 -53 33 -118 22 -277 -6 -85 -14
-159 -18 -163 -4 -4 -20 -1 -36 8 -16 8 -42 20 -57 25 l-28 10 20 26 c54 69
-12 168 -98 149 -63 -14 -91 -97 -50 -149 19 -25 20 -26 2 -32 -10 -3 -37 -14
-61 -26 -23 -12 -44 -19 -46 -17 -1 2 -8 77 -15 166 -19 236 -14 252 102 371
l91 92 79 -77 c43 -43 85 -90 93 -106z m-399 -59 c0 -7 6 -80 14 -163 8 -82
13 -181 12 -220 -1 -73 -1 -163 1 -229 l1 -39 -63 -15 c-35 -7 -66 -11 -69 -8
-3 3 -24 101 -45 218 -50 273 -50 271 57 383 84 87 91 93 92 73z m548 -78 l80
-81 0 -92 c-1 -62 -12 -146 -34 -260 -31 -155 -35 -167 -53 -161 -11 3 -40 9
-65 12 l-46 7 0 185 c-1 179 19 470 32 470 4 0 42 -36 86 -80z m-270 -125 c49
-48 17 -125 -52 -125 -70 0 -101 86 -47 129 35 28 69 26 99 -4z m-447 -228
c24 -127 45 -236 45 -240 1 -5 -8 -13 -20 -17 -20 -8 -24 -4 -43 56 -22 66
-37 77 -78 55 -9 -4 -29 -11 -43 -15 -26 -6 -27 -4 -49 76 -33 122 -26 149 63
242 40 41 74 75 77 76 3 0 25 -105 48 -233z m914 156 c76 -77 92 -110 83 -168
-7 -40 -35 -147 -41 -154 -1 -1 -26 5 -54 14 -28 9 -53 15 -54 14 -2 -2 -12
-31 -23 -64 -16 -48 -24 -59 -39 -57 -41 6 -43 9 -33 49 10 42 63 324 74 391
4 23 10 42 14 42 3 0 37 -30 73 -67z m-446 -90 c27 -9 60 -23 73 -32 26 -16
53 -72 47 -93 -6 -17 -19 -183 -22 -273 -2 -38 -7 -140 -13 -225 -5 -85 -10
-170 -10 -187 l-1 -33 -150 0 -150 0 -2 53 c-1 34 -3 41 -5 20 -5 -40 -13 -46
-97 -72 -83 -26 -79 -26 -71 2 3 12 -8 -2 -25 -30 -33 -55 -56 -70 -45 -30 6
21 6 21 -9 3 -15 -19 -18 -19 -51 -3 -41 20 -45 38 -10 57 14 7 23 15 20 18
-2 3 -16 -3 -30 -12 -21 -14 -29 -15 -41 -5 -8 6 -17 10 -20 7 -2 -3 13 -21
34 -40 52 -47 139 -79 235 -85 l78 -6 -3 -131 -3 -131 -76 1 c-137 2 -225 59
-325 212 -58 87 -142 182 -163 182 -6 0 -11 -9 -11 -21 0 -48 -52 -102 -113
-117 -87 -23 -167 43 -167 138 0 30 0 30 -25 14 -13 -9 -54 -50 -90 -93 l-65
-76 38 -7 c20 -4 53 -7 74 -7 34 -1 37 -3 43 -41 4 -22 10 -42 14 -44 4 -3 31
16 60 41 42 36 64 48 104 54 56 9 105 48 132 106 13 27 19 31 34 24 19 -11 71
-74 71 -88 0 -4 -36 -44 -81 -88 -96 -94 -156 -171 -221 -278 l-46 -78 -15 53
c-8 29 -30 112 -48 183 l-34 130 -178 5 -178 5 42 65 c102 158 260 331 405
445 152 120 493 293 556 283 15 -2 26 -22 48 -92 16 -49 34 -93 39 -97 6 -5 9
-6 6 -3 -8 11 16 34 36 34 10 0 21 4 24 10 3 6 -9 9 -31 7 -67 -4 -47 19 31
36 109 24 110 24 111 -23 1 -42 9 -59 21 -47 3 4 2 74 -4 155 -12 160 -8 180
38 214 33 25 96 47 135 48 17 0 53 -7 80 -17z m-681 -120 c14 -49 28 -96 31
-105 3 -10 3 -18 1 -18 -3 0 -42 -16 -87 -35 l-81 -35 -15 35 c-8 19 -14 52
-14 73 0 33 8 48 61 105 34 37 65 67 70 67 4 0 20 -39 34 -87z m1381 -56 c8
-26 -4 -98 -20 -119 -12 -17 -18 -16 -92 18 -43 20 -80 37 -82 39 -1 1 2 15 7
31 6 16 20 62 31 103 l22 74 64 -64 c35 -35 67 -72 70 -82z m-1539 -142 c-3
-6 -37 -30 -76 -52 -59 -35 -71 -38 -75 -25 -2 10 -7 27 -11 40 -5 18 5 35 57
88 l63 66 23 -53 c13 -28 21 -57 19 -64z m1693 -35 c0 -61 -9 -63 -88 -17 -39
23 -72 47 -72 53 0 6 10 35 22 63 l21 52 59 -58 c49 -48 58 -63 58 -93z m-354
95 c208 -86 346 -169 502 -300 128 -107 289 -293 371 -427 l23 -38 -170 0
c-124 0 -172 -3 -179 -12 -6 -7 -29 -87 -52 -178 -24 -91 -44 -166 -46 -168
-1 -2 -20 25 -41 60 -63 105 -147 209 -238 296 l-87 82 21 30 c26 37 70 71 81
64 5 -3 9 0 9 5 0 46 -94 -47 -178 -175 -98 -148 -186 -204 -322 -204 l-70 0
0 130 0 130 48 0 c55 0 162 24 200 45 25 13 26 14 5 15 -12 0 -29 10 -37 22
-18 25 -21 17 -6 -12 7 -12 7 -21 0 -25 -5 -3 -20 15 -32 40 -18 36 -24 42
-29 28 -3 -10 1 -29 10 -43 15 -23 15 -24 -4 -16 -11 5 -56 19 -100 31 l-80
22 -3 53 c-2 30 -1 65 3 78 5 22 10 24 48 19 23 -2 49 -8 58 -12 14 -5 22 10
48 90 37 113 36 113 12 91 -15 -14 -29 -16 -67 -10 -27 4 -58 7 -69 8 -19 1
-20 8 -21 94 0 56 4 96 10 100 6 4 11 14 11 22 0 18 18 17 122 -7 65 -15 72
-19 75 -42 3 -19 11 -2 32 62 18 55 34 87 43 87 8 0 52 -16 99 -35z m-2050
-127 c34 -21 217 -226 248 -276 5 -8 -13 -36 -47 -75 -29 -34 -73 -88 -97
-120 -24 -32 -47 -56 -51 -55 -31 11 -266 222 -297 266 -37 54 -37 54 -40 174
l-4 120 124 -4 c114 -3 126 -5 164 -30z m261 11 c19 -12 56 -53 84 -92 l50
-71 -58 -58 c-32 -32 -63 -57 -69 -56 -6 2 -60 62 -119 133 -59 72 -115 138
-123 148 -14 16 -9 17 93 17 92 0 113 -3 142 -21z m259 -11 l35 -33 -70 -52
c-39 -29 -74 -53 -78 -53 -7 0 -103 139 -111 161 -2 5 40 9 92 9 95 0 97 -1
132 -32z m2148 20 c-4 -7 -32 -48 -62 -91 -37 -53 -58 -75 -66 -69 -6 5 -40
31 -75 57 l-64 49 36 33 c36 33 37 33 137 33 78 0 99 -3 94 -12z m232 -45
c-70 -89 -208 -248 -213 -246 -2 1 -31 27 -64 56 l-60 55 46 66 c26 36 63 79
83 96 36 29 39 30 145 30 l108 0 -45 -57z m344 -60 c0 -113 -1 -117 -32 -165
-19 -31 -85 -95 -171 -168 l-140 -118 -68 86 c-38 48 -82 104 -100 125 -28 33
-30 40 -17 55 159 191 226 261 273 283 31 14 64 19 148 19 l107 0 0 -117z
m-3357 -324 c86 -72 157 -135 157 -140 0 -5 -11 -27 -25 -49 -14 -22 -25 -44
-25 -50 0 -5 24 -10 53 -10 l52 0 -47 -31 -47 -31 -108 75 c-59 41 -124 92
-143 112 l-35 36 -3 110 c-2 60 0 109 5 109 5 0 80 -59 166 -131z m3357 31 c0
-125 -8 -142 -97 -207 -125 -92 -144 -102 -174 -96 -15 3 -40 -1 -56 -9 -27
-13 -30 -13 -46 9 l-18 23 56 0 c31 0 55 4 55 10 0 6 -12 29 -26 51 -14 22
-24 44 -22 49 4 10 311 268 321 269 4 1 7 -44 7 -99z m-1940 -85 c0 -8 -3 -15
-7 -15 -12 -1 -135 -36 -156 -45 -13 -5 -16 -3 -11 8 6 16 30 28 109 51 64 19
65 19 65 1z m336 -50 c7 -19 14 -37 14 -40 0 -3 -81 -5 -180 -5 -139 0 -178 3
-175 13 2 6 9 24 14 40 l11 27 150 0 151 0 15 -35z m-357 -19 c-11 -24 -17
-26 -71 -26 -32 0 -58 4 -58 9 0 7 47 24 125 45 16 5 17 0 4 -28z m464 13 c90
-25 87 -39 -10 -39 -59 0 -61 1 -72 30 -5 17 -7 30 -4 30 4 0 42 -10 86 -21z
m-1879 -124 l126 -86 -33 -32 c-18 -18 -45 -48 -59 -67 l-27 -34 -43 23 c-98
54 -118 89 -118 207 0 71 3 85 14 81 8 -3 71 -45 140 -92z m3376 0 c0 -94 0
-95 -35 -133 -19 -22 -54 -49 -78 -62 l-44 -23 -22 22 c-13 13 -30 21 -39 19
-15 -4 -17 4 -17 57 l0 61 110 77 c61 42 113 76 118 76 4 1 7 -42 7 -94z
m-1586 41 c8 -31 2 -213 -7 -222 -4 -4 -85 -8 -180 -8 l-172 -1 -3 128 -3 127
180 0 179 0 6 -24z m575 -73 c94 -96 197 -235 248 -337 14 -28 41 -67 60 -87
30 -31 33 -40 24 -57 -14 -26 -1 -61 41 -114 23 -29 28 -42 19 -51 -17 -17
-13 -47 14 -94 20 -33 24 -47 15 -62 -15 -29 -12 -57 11 -112 17 -38 19 -53
10 -62 -17 -17 -13 -69 10 -106 l20 -33 -20 -20 c-25 -22 -26 -50 -7 -106 14
-39 14 -41 -10 -57 -13 -8 -24 -22 -24 -30 0 -18 -71 -12 -136 12 -38 13 -42
19 -58 74 l-18 59 -118 0 -118 0 -73 68 c-233 215 -279 252 -323 264 -41 11
-43 13 -34 34 14 31 -16 84 -60 104 l-32 15 0 256 0 256 78 5 c138 8 245 77
327 212 22 36 44 66 49 66 4 0 52 -44 105 -97z m-1371 40 c42 -74 126 -157
189 -189 48 -23 74 -29 146 -32 l87 -4 0 -254 0 -254 -247 -1 c-137 0 -306 0
-378 1 -144 1 -175 -9 -205 -64 -13 -26 -13 -31 7 -66 l22 -37 -67 -10 c-37
-6 -75 -13 -84 -18 -15 -6 -18 -2 -18 31 0 22 -7 64 -15 94 -8 30 -15 56 -15
56 0 1 14 4 30 8 40 7 58 46 43 87 -10 25 -8 33 11 57 38 47 54 78 71 136 9
31 20 56 25 56 4 0 25 30 45 68 20 37 58 96 83 132 46 66 219 250 234 250 5 0
21 -21 36 -47z m-694 -88 c51 -156 17 -322 -95 -452 -23 -26 -45 -49 -49 -51
-4 -1 -17 22 -30 52 -29 73 -16 115 47 148 52 28 57 44 7 23 -20 -8 -38 -15
-39 -15 -2 0 7 26 19 58 18 47 29 61 65 81 46 25 50 38 6 21 -15 -6 -30 -9
-32 -6 -2 2 5 22 16 45 12 22 21 44 21 48 0 14 -23 -16 -40 -54 l-18 -38 -7
33 c-4 18 -12 35 -17 38 -6 4 -8 -1 -5 -12 18 -63 17 -86 -4 -145 l-22 -61
-23 43 c-27 51 -31 38 -8 -21 22 -54 13 -108 -22 -137 l-27 -21 -26 30 c-22
27 -25 41 -26 102 0 92 36 169 113 243 56 53 162 117 173 105 4 -4 14 -29 23
-57z m195 28 c6 -20 9 -38 8 -38 -1 -1 -30 -18 -63 -38 -34 -20 -67 -44 -74
-52 -19 -23 -30 -18 -30 13 0 24 -17 90 -35 135 -7 15 1 17 88 17 l96 0 10
-37z m2370 21 c-10 -12 -9 -55 2 -93 5 -20 -79 -15 -102 5 -8 8 -23 14 -33 14
-12 0 -16 6 -12 18 3 9 8 30 12 45 6 27 8 28 75 26 57 -1 67 -4 58 -15z m122
-15 c27 -28 32 -31 55 -20 35 16 71 14 78 -5 3 -9 6 -40 6 -69 0 -53 0 -54 33
-57 31 -3 32 -4 31 -48 0 -25 -2 -60 -5 -79 -4 -33 -3 -35 31 -35 42 -1 52
-27 22 -59 -11 -12 -23 -33 -27 -47 -5 -22 -11 -25 -40 -22 -29 3 -35 10 -50
49 -16 42 -16 47 0 89 9 25 14 48 11 51 -4 4 -12 -8 -18 -25 -7 -18 -15 -32
-18 -32 -4 0 -17 25 -29 56 -23 54 -24 78 -5 143 5 16 4 22 -4 17 -6 -3 -13
-20 -17 -36 -8 -34 -41 -48 -73 -31 -25 13 -32 14 -32 3 0 -5 17 -14 39 -20
21 -7 43 -18 49 -25 12 -13 54 -117 48 -117 -2 0 -16 7 -32 15 -15 8 -30 12
-33 10 -2 -3 -2 -6 0 -8 2 -2 22 -15 45 -29 32 -21 44 -36 54 -72 11 -42 11
-49 -5 -66 -12 -14 -16 -28 -12 -50 l7 -30 -38 20 c-49 26 -65 39 -87 73 -17
27 -17 28 5 51 l22 24 -46 21 c-53 23 -64 41 -47 78 10 22 8 29 -24 64 -42 47
-45 80 -9 106 23 17 25 23 15 41 -43 81 37 138 100 71z m-2444 -164 c30 -114
28 -217 -7 -285 -36 -71 -70 -110 -95 -110 -12 0 -34 -9 -48 -20 l-26 -21 -11
21 c-9 16 -8 34 1 71 15 57 18 60 82 84 58 22 63 40 6 20 -23 -8 -45 -15 -50
-15 -11 0 29 116 45 129 7 6 31 17 52 25 21 8 31 15 22 15 -9 1 -28 -3 -42 -9
-31 -11 -31 -13 -6 46 11 26 18 49 15 52 -3 3 -13 -13 -23 -36 -9 -23 -20 -42
-24 -42 -3 0 -11 14 -17 32 -6 17 -13 29 -16 26 -3 -3 -1 -17 5 -32 16 -42 12
-77 -14 -141 l-24 -59 -13 42 c-6 23 -16 42 -22 42 -5 0 -7 -6 -4 -14 27 -71
29 -94 12 -146 -16 -48 -63 -105 -90 -109 -5 -1 -13 22 -17 51 -6 48 -4 57 28
108 41 68 62 126 71 197 6 59 21 79 98 132 43 30 65 41 79 37 5 -1 20 -42 33
-91z m2208 75 c11 -13 31 -20 53 -20 30 0 34 -3 29 -21 -8 -28 8 -68 40 -101
23 -25 25 -31 14 -54 -15 -33 3 -65 47 -85 28 -12 29 -15 16 -35 -17 -25 -10
-49 23 -85 20 -22 22 -29 12 -57 l-11 -32 -33 35 c-18 19 -41 35 -52 35 -29 0
-74 141 -63 200 8 45 -4 55 -15 13 -7 -28 -7 -27 -32 21 -24 48 -26 76 -8 131
7 20 6 20 -9 1 -9 -11 -16 -28 -16 -38 0 -27 -13 -22 -32 13 -21 36 -21 39 -8
73 11 31 21 32 45 6z m-2809 -65 l63 -35 -15 -35 c-8 -19 -14 -55 -14 -80 0
-43 -1 -46 -22 -39 -26 8 -250 103 -255 108 -2 2 25 31 59 65 73 72 82 73 184
16z m3529 -25 c32 -33 57 -61 54 -64 -5 -5 -249 -106 -256 -106 -3 0 -3 6 0
13 9 24 -13 47 -45 47 -27 0 -30 3 -24 23 3 12 6 32 6 44 0 13 11 30 25 39 36
23 137 63 160 64 12 0 46 -25 80 -60z m-1683 -225 c0 -132 0 -248 -1 -257 -1
-15 -11 -16 -78 -12 -43 3 -80 7 -82 9 -2 3 -3 27 -3 55 0 27 1 137 1 244 1
222 -7 205 100 203 l64 -2 -1 -240z m928 203 c0 -4 -9 -8 -20 -8 -21 0 -24 8
-13 36 6 16 7 16 20 -2 7 -10 13 -21 13 -26z m-1117 -10 c3 -24 6 -139 7 -255
l1 -213 -91 0 -90 0 0 203 c0 111 3 226 6 255 l7 52 77 0 77 0 6 -42z m1121
-18 c16 -6 35 -29 52 -61 23 -45 23 -51 7 -45 -10 4 -31 10 -48 12 -20 3 -12
-2 22 -16 52 -21 53 -23 73 -87 25 -81 25 -89 0 -115 -11 -12 -20 -32 -20 -45
0 -32 -13 -29 -50 13 -47 54 -55 82 -30 109 l21 22 -34 23 c-18 12 -42 36 -54
52 -19 28 -20 33 -7 80 7 28 19 55 26 59 16 11 12 11 42 -1z m-2868 -89 c65
-27 120 -55 122 -63 1 -8 -9 -20 -23 -26 -38 -18 -52 -55 -31 -87 9 -14 23
-25 31 -25 8 0 15 -4 15 -10 0 -14 -5 -13 -90 14 -41 13 -133 41 -205 62 -71
20 -134 41 -140 46 -6 6 14 33 58 74 85 81 99 82 263 15z m3707 35 c29 -11
153 -124 145 -131 -2 -1 -83 -26 -181 -54 -108 -33 -187 -51 -201 -47 -21 5
-23 10 -19 51 4 32 1 52 -12 71 -9 14 -15 27 -13 28 8 5 227 90 246 95 1 1 17
-5 35 -13z m-281 -120 c14 -32 4 -56 -22 -56 -11 0 -23 7 -27 16 -7 18 12 64
27 64 6 0 15 -11 22 -24z m-3278 -32 c9 -8 16 -22 16 -29 0 -18 -27 -45 -45
-45 -18 0 -45 27 -45 45 0 18 27 45 45 45 7 0 21 -7 29 -16z m-225 -65 c91
-27 167 -51 169 -54 2 -2 -6 -17 -19 -32 -13 -16 -33 -48 -43 -71 -23 -50 -29
-51 -161 -23 -49 11 -157 31 -240 46 -82 15 -152 29 -154 31 -9 8 148 152 170
157 44 9 113 -4 278 -54z m339 4 c53 -123 68 -286 36 -394 -18 -63 -84 -189
-98 -189 -20 0 -56 44 -56 69 0 66 13 101 51 138 51 50 50 63 -1 23 l-41 -32
6 43 c11 82 16 94 58 144 40 48 35 53 -11 12 l-22 -21 5 50 c5 46 4 47 -5 14
-20 -67 -21 -67 -45 -20 -29 55 -33 39 -5 -21 19 -44 24 -106 11 -164 l-6 -30
-28 45 c-34 57 -35 39 -1 -34 21 -47 25 -65 19 -106 -9 -63 -26 -79 -54 -51
-12 12 -27 21 -34 21 -8 0 -19 17 -25 38 -47 156 -3 301 133 439 40 40 77 73
82 73 6 0 20 -21 31 -47z m3624 38 c24 -9 161 -141 154 -148 -5 -5 -68 -18
-306 -63 -91 -17 -174 -33 -186 -35 -13 -3 -28 3 -39 15 -10 11 -24 20 -30 20
-9 0 -8 17 4 65 l16 65 110 34 c192 60 228 66 277 47z m-522 -38 c13 -28 20
-32 51 -31 20 1 41 -2 47 -6 17 -10 15 -57 -4 -101 -16 -39 -12 -51 21 -57 26
-4 32 -73 11 -133 -15 -47 -13 -55 16 -55 34 0 21 -90 -17 -110 -12 -7 -28
-23 -34 -37 -10 -22 -13 -23 -27 -9 -8 9 -21 16 -28 16 -15 0 -26 51 -26 118
0 29 8 55 25 79 30 45 23 59 -9 18 l-23 -28 -6 48 c-11 78 -8 108 14 144 11
18 18 36 15 38 -3 3 -14 -9 -24 -27 l-20 -32 -12 37 c-15 46 -25 39 -12 -9 6
-20 9 -36 7 -36 -2 0 -20 9 -39 21 -20 12 -36 17 -36 12 0 -4 18 -18 40 -31
41 -23 42 -25 55 -137 l5 -49 -35 34 c-19 18 -37 31 -41 28 -3 -3 13 -23 34
-45 38 -36 40 -42 46 -110 5 -60 3 -73 -8 -73 -8 0 -24 -12 -35 -27 -12 -14
-23 -24 -25 -22 -2 2 -15 22 -30 43 -34 51 -34 93 -1 108 31 14 31 25 2 48
-13 10 -32 35 -42 55 l-20 36 28 24 c15 13 27 27 27 31 0 3 -13 22 -30 40 -54
62 -50 105 11 118 28 5 30 7 23 42 -8 45 14 67 61 62 23 -2 34 -11 45 -35z
m70 19 c0 -10 -22 -32 -32 -32 -4 0 -12 9 -18 20 -10 18 -8 20 20 20 16 0 30
-4 30 -8z m-3076 -173 c-21 -24 -22 -23 -39 39 -12 49 -12 52 9 65 20 14 21
13 34 -35 12 -45 11 -52 -4 -69z m2716 101 c11 -11 20 -24 20 -30 0 -5 11 -10
24 -10 26 0 56 -23 56 -43 0 -7 14 -29 30 -49 l31 -37 -21 -21 c-30 -30 -26
-73 11 -115 l32 -36 -22 -23 c-23 -25 -26 -51 -11 -91 8 -22 6 -34 -11 -61
-11 -19 -22 -34 -25 -34 -2 0 -10 16 -19 36 -8 20 -23 38 -34 41 -40 10 -43
116 -6 180 29 48 22 57 -11 16 l-22 -28 -7 69 c-6 54 -4 75 9 103 9 20 15 38
12 41 -3 2 -11 -7 -17 -22 l-13 -27 -13 32 c-17 41 -26 33 -13 -11 5 -19 8
-35 6 -37 -1 -2 -19 4 -39 12 -21 8 -37 12 -37 7 0 -4 15 -14 34 -20 47 -17
52 -27 60 -104 l7 -68 -36 21 c-49 30 -54 18 -6 -14 37 -24 39 -29 43 -82 3
-52 1 -57 -22 -68 -14 -7 -33 -27 -42 -46 l-17 -33 -25 50 -25 50 20 26 20 25
-26 48 c-29 56 -32 89 -8 115 15 17 15 20 -4 41 -52 56 -57 103 -13 118 23 8
30 17 30 37 0 56 61 81 100 42z m115 -17 c-19 -19 -35 -16 -35 5 0 26 9 33 30
20 15 -10 16 -14 5 -25z m-2684 -50 c62 -99 87 -255 56 -357 -10 -31 -19 -41
-47 -50 -19 -6 -39 -21 -45 -32 l-11 -22 -27 22 c-41 33 -32 114 20 168 31 32
27 48 -5 18 -28 -26 -30 -25 -25 8 9 61 14 70 53 97 22 15 38 30 35 33 -3 3
-19 -4 -35 -16 -16 -12 -31 -22 -34 -22 -2 0 0 19 5 41 6 23 7 44 4 47 -2 3
-8 -9 -11 -27 -8 -41 -22 -48 -30 -16 -3 14 -10 25 -14 25 -4 0 -1 -23 7 -50
10 -36 12 -65 6 -103 l-8 -52 -24 38 c-33 54 -38 38 -7 -24 31 -63 32 -92 7
-139 -11 -19 -28 -50 -37 -67 -10 -18 -21 -33 -24 -33 -4 0 -15 25 -25 56 -17
55 -17 55 10 137 14 44 29 113 32 151 4 53 12 80 31 109 23 35 96 107 107 107
3 0 19 -21 36 -47z m101 20 c10 -9 18 -22 18 -29 0 -17 -28 -44 -45 -44 -18 0
-45 27 -45 45 0 16 27 45 42 45 6 0 20 -7 30 -17z m-982 -53 c25 -5 97 -19
160 -30 223 -41 220 -40 209 -67 -5 -13 -9 -49 -9 -80 l0 -55 -52 6 c-29 4
-127 13 -218 21 -399 34 -445 39 -449 41 -10 8 175 173 198 177 31 5 98 -1
161 -13z m4453 2 c10 -4 54 -43 98 -87 95 -95 102 -87 -111 -105 -80 -6 -212
-18 -294 -26 -183 -17 -226 -17 -249 1 -17 13 -18 18 -5 76 l14 63 85 17 c46
9 129 24 184 34 55 9 114 21 130 25 37 10 124 11 148 2z m-2478 -68 c-12 -18
-16 -39 -12 -63 l4 -36 -215 -3 -214 -3 6 24 c3 14 -2 39 -14 62 -11 22 -20
40 -20 41 0 2 109 3 241 4 l242 1 -18 -27z m-2019 -143 c121 -11 260 -23 309
-27 l91 -6 16 -55 c15 -53 15 -56 -3 -74 -10 -10 -19 -28 -19 -40 0 -27 18
-59 33 -59 29 -1 38 -16 26 -43 -10 -22 -20 -27 -63 -31 -28 -3 -98 -10 -156
-16 -58 -5 -161 -15 -230 -20 -69 -6 -152 -13 -185 -16 -41 -4 -81 -1 -125 10
-60 15 -71 23 -152 104 l-87 87 72 76 c84 89 109 107 168 118 64 13 68 13 305
-8z m4697 -7 c34 -11 68 -38 130 -99 l84 -84 -91 -90 c-72 -70 -101 -92 -136
-101 -51 -14 -176 -10 -445 14 -283 26 -285 26 -285 46 0 10 -6 23 -14 29 -11
9 -9 19 10 56 18 37 21 51 13 78 -5 17 -6 51 -3 75 5 34 10 42 28 43 11 0 30
2 41 4 11 2 117 11 235 20 118 10 217 19 219 21 12 11 173 2 214 -12z m-3452
1 c3 -2 -14 -62 -37 -132 -23 -70 -49 -161 -57 -202 -13 -61 -22 -80 -54 -113
-61 -63 -68 -64 -80 -13 l-10 44 49 -2 49 -2 29 110 c31 122 55 195 77 238 8
16 13 30 11 32 -4 4 -76 8 -110 6 -22 -1 -34 -14 -70 -76 -23 -41 -46 -75 -50
-75 -16 0 -7 28 26 80 19 30 32 57 29 60 -3 3 -8 0 -10 -6 -2 -6 -10 -20 -19
-30 -14 -18 -14 -18 -12 5 4 35 45 60 113 70 71 10 120 13 126 6z m203 -26 c7
-7 43 -106 80 -219 l66 -204 -42 -43 -43 -44 -5 -157 -5 -157 -45 2 c-25 1
-110 8 -190 14 l-145 11 -56 57 -56 57 24 17 c24 19 32 70 13 82 -5 3 -10 18
-10 32 0 23 3 24 28 18 49 -14 76 -11 80 9 5 24 -14 36 -58 36 l-35 0 53 51
c35 35 52 59 52 76 0 45 84 332 108 370 15 24 161 19 186 -8z m816 -3 c0 -9
-30 -14 -35 -6 -4 6 3 10 14 10 12 0 21 -2 21 -4z m-5 -26 c-3 -5 -1 -10 6
-10 7 0 10 -2 7 -5 -3 -3 -13 -2 -22 1 -14 5 -15 9 -4 15 17 11 20 11 13 -1z
m1690 -100 c7 -22 -2 -60 -15 -60 -4 0 -18 8 -29 18 l-22 17 21 23 c26 27 37
28 45 2z m-3474 -10 c25 -14 25 -56 -1 -70 -41 -22 -80 21 -54 59 17 24 27 26
55 11z m3084 -25 c14 -13 25 -33 25 -44 0 -13 9 -23 23 -27 19 -4 23 -11 20
-28 -3 -13 4 -41 15 -62 l19 -38 -31 -15 c-29 -15 -31 -19 -30 -68 1 -43 -1
-51 -15 -46 -9 3 -22 7 -30 9 -11 3 -11 7 -1 19 8 10 9 15 2 15 -6 0 -14 -4
-17 -10 -3 -5 -12 -10 -19 -10 -25 0 3 97 35 125 35 29 38 43 4 21 -13 -9 -27
-16 -30 -16 -3 0 -5 22 -5 49 0 28 -4 52 -8 55 -5 3 -6 -22 -4 -55 2 -32 1
-59 -4 -59 -4 0 -18 10 -31 22 -13 12 -26 19 -29 15 -4 -3 8 -18 25 -32 33
-28 38 -55 21 -100 -9 -23 -12 -25 -32 -14 -13 7 -39 13 -58 13 -44 1 -55 32
-15 42 18 5 25 12 22 23 -28 97 -31 113 -20 129 6 10 21 16 37 14 23 -2 26 1
26 28 0 35 30 70 60 70 12 0 32 -11 45 -25z m286 -1 c6 -8 15 -29 18 -47 5
-21 14 -33 26 -36 52 -9 59 -52 20 -126 -24 -45 -25 -48 -8 -61 10 -7 21 -14
26 -14 19 -1 3 -53 -29 -95 l-35 -47 20 -22 c12 -12 21 -29 21 -37 0 -24 -67
-96 -78 -84 -5 6 -19 42 -31 82 -12 40 -24 79 -27 87 -4 11 6 23 30 37 20 11
36 25 36 31 0 5 -13 1 -30 -8 -16 -10 -32 -16 -34 -13 -3 3 2 32 10 64 12 47
23 67 52 92 41 36 36 44 -8 13 l-27 -20 5 45 c3 30 1 45 -7 45 -7 0 -11 -19
-11 -47 l0 -47 -30 34 c-36 43 -39 33 -4 -20 27 -40 27 -58 3 -137 l-10 -33
-26 31 c-32 37 -43 31 -14 -9 l21 -30 -46 17 c-54 21 -64 33 -64 83 0 39 19
58 59 58 20 0 19 1 -5 37 -16 24 -24 48 -22 68 3 29 5 30 46 27 l42 -3 0 39
c0 41 11 57 45 64 27 5 52 -1 66 -18z m-3230 -58 c91 -107 128 -202 129 -326
0 -58 -20 -166 -36 -191 -3 -5 -22 0 -43 11 -34 17 -39 25 -51 78 -11 52 -10
64 5 95 9 19 25 43 36 53 20 18 27 40 8 29 -6 -4 -24 -25 -40 -47 -16 -23 -29
-39 -30 -37 0 2 -2 13 -5 24 -17 85 -16 122 6 164 12 24 19 45 16 48 -2 3 -13
-12 -24 -34 l-20 -38 -7 60 c-9 84 -15 92 -12 17 1 -34 0 -62 -2 -62 -3 0 -18
12 -33 27 -15 15 -28 22 -28 17 0 -6 14 -23 30 -39 30 -29 42 -60 55 -144 l7
-44 -38 31 c-54 45 -56 30 -2 -17 37 -33 47 -49 56 -92 8 -42 7 -55 -4 -67
-10 -10 -18 -11 -27 -4 -7 6 -23 12 -37 14 -20 2 -32 18 -59 70 -42 85 -51
173 -27 268 18 71 94 212 110 207 6 -2 36 -34 67 -71z m357 62 c34 -34 -6 -90
-48 -68 -11 6 -20 12 -20 15 0 2 -3 10 -6 18 -12 32 48 61 74 35z m-274 -58
c26 -86 15 -105 -27 -44 -32 47 -33 49 -18 76 9 15 18 28 21 28 3 0 13 -27 24
-60z m147 37 c50 -42 117 -135 139 -193 11 -32 22 -85 23 -118 2 -53 0 -61
-18 -64 -28 -6 -55 -32 -55 -54 0 -20 -1 -21 -25 -12 -31 12 -37 52 -15 101
23 52 23 53 12 53 -5 0 -15 -15 -24 -32 l-15 -32 -12 65 c-12 64 -12 68 14
120 18 34 22 49 12 40 -9 -7 -19 -21 -22 -32 -11 -34 -22 -20 -33 44 l-11 62
4 -68 3 -68 -24 22 c-13 12 -27 19 -31 15 -4 -4 0 -12 9 -17 32 -18 56 -64 63
-123 l8 -59 -32 24 c-17 12 -33 20 -36 17 -3 -3 10 -17 30 -32 57 -44 60 -57
28 -137 l-28 -71 -26 32 c-25 30 -27 37 -22 108 3 60 0 94 -17 152 -12 41 -22
87 -22 102 -1 35 72 178 91 178 3 0 18 -10 32 -23z m2869 -39 c0 -5 -50 -4
-78 1 -1 1 5 15 14 32 l16 32 24 -29 c13 -16 23 -32 24 -36z m217 8 c-2 -6
-13 -12 -25 -14 -16 -3 -22 2 -22 16 0 15 5 18 25 14 14 -2 24 -10 22 -16z
m-1522 -114 c-3 -3 -11 0 -18 7 -9 10 -8 11 6 5 10 -3 15 -9 12 -12z m-1994
-74 l-17 -83 -69 -12 c-39 -6 -130 -23 -204 -37 -73 -14 -163 -26 -199 -26
l-64 0 -84 82 c-46 45 -84 84 -84 88 0 3 145 19 323 34 177 15 329 29 337 31
8 1 29 3 46 4 l31 1 -16 -82z m2018 56 c2 -2 -10 -4 -27 -4 -18 0 -32 5 -32
10 0 9 47 4 59 -6z m1905 -14 c181 -17 331 -31 332 -33 2 -2 -34 -41 -81 -87
-81 -80 -85 -83 -137 -87 -36 -3 -124 9 -270 36 -119 23 -219 41 -222 41 -3 0
-6 7 -6 15 0 9 -11 26 -25 39 l-25 23 23 42 c18 34 27 41 52 41 17 0 178 -14
359 -30z m-1259 -20 c20 -9 20 -9 0 -9 -27 -1 -45 -20 -45 -46 0 -12 5 -26 12
-33 9 -9 5 -12 -17 -12 -70 0 -293 -11 -323 -16 -22 -3 -37 -13 -43 -28 -13
-28 2 -31 -279 54 -153 46 -282 80 -307 80 -13 0 -23 5 -23 10 0 13 996 13
1025 0z m-985 -24 c190 -43 569 -159 535 -163 -104 -13 -451 -30 -460 -23 -24
20 -221 92 -348 127 l-132 37 59 14 c53 11 166 27 221 31 11 0 67 -10 125 -23z
m1024 -12 c22 -21 20 -31 -9 -50 -24 -16 -27 -16 -45 1 -25 22 -25 41 -2 54
24 15 38 13 56 -5z m191 -55 l40 -20 -34 6 c-18 3 -69 5 -113 5 -70 0 -79 2
-68 15 7 8 10 25 6 39 l-6 24 68 -24 c37 -14 85 -34 107 -45z m175 -10 c126
-29 247 -69 263 -87 16 -19 67 -188 59 -197 -14 -13 -21 2 -42 93 -13 53 -28
100 -34 104 -6 4 -66 8 -133 8 -110 0 -123 2 -133 19 -5 11 -43 36 -82 55
l-73 36 45 -6 c25 -3 83 -15 130 -25z m-101 -30 c74 -16 81 -31 82 -174 0 -92
-3 -121 -15 -133 -20 -20 -146 -29 -417 -31 -193 -1 -219 1 -237 16 -11 10
-46 77 -77 148 -46 107 -54 134 -46 153 7 14 20 22 38 23 16 1 87 5 158 9 162
10 445 4 514 -11z m-2969 -9 c0 -11 9 -48 20 -81 12 -34 20 -63 18 -64 -2 -2
-74 -24 -161 -49 -206 -60 -215 -59 -317 40 -41 40 -72 75 -70 77 5 5 464 95
493 96 11 1 17 -6 17 -19z m3765 -25 c105 -20 212 -41 239 -47 l49 -11 -80
-78 c-79 -78 -81 -79 -132 -79 -30 0 -103 15 -174 36 -163 48 -166 49 -160 73
3 12 -4 28 -17 41 -22 22 -22 22 -2 43 11 12 25 32 31 45 8 16 18 21 34 17 12
-2 108 -21 212 -40z m-457 -38 c11 -13 56 -176 50 -182 -1 -1 -66 -4 -143 -6
l-140 -4 -7 95 c-3 52 -4 98 -2 102 9 14 230 9 242 -5z m-2698 -11 c6 -8 10
-25 8 -38 -6 -42 -78 -32 -78 11 0 37 46 55 70 27z m1680 -83 c23 -54 44 -104
47 -110 4 -10 -42 -13 -210 -13 l-215 0 -11 33 c-14 45 -35 157 -29 162 3 4
233 20 334 24 l42 1 42 -97z m-424 12 c6 -27 14 -69 17 -92 l7 -43 -60 0 c-53
0 -61 3 -77 26 -9 14 -19 51 -21 82 -6 68 10 84 78 80 l45 -3 11 -50z m-1339
5 c100 -57 188 -167 208 -257 3 -18 11 -36 17 -39 14 -9 1 49 -23 104 -17 40
-17 43 -1 38 9 -2 91 -10 183 -17 l165 -12 20 -83 20 -84 -21 0 c-11 1 -92 9
-180 19 -93 11 -169 15 -182 10 -27 -10 -47 -45 -40 -70 4 -15 0 -19 -18 -19
-17 0 -31 12 -48 40 -20 35 -23 47 -16 83 4 23 8 51 8 62 1 17 -1 17 -9 5 -5
-8 -10 -25 -10 -37 0 -38 -17 -34 -40 12 -15 30 -21 53 -17 73 18 90 18 89 -2
47 -20 -43 -21 -43 -45 35 -8 26 -14 36 -15 24 -1 -12 6 -41 14 -64 l15 -42
-26 17 c-14 9 -30 15 -37 12 -6 -2 8 -14 31 -27 32 -18 48 -37 67 -78 14 -30
25 -56 25 -58 0 -3 -14 3 -31 11 -17 9 -33 14 -36 11 -3 -3 15 -15 40 -27 31
-15 50 -33 59 -53 12 -30 19 -156 8 -156 -3 0 -22 14 -43 31 -24 20 -37 39
-37 54 0 51 -46 147 -115 242 -14 18 -15 30 -6 80 14 74 40 143 55 143 6 0 34
-14 63 -30z m-458 -33 c8 -10 7 -19 -4 -33 -30 -40 -6 -93 44 -97 31 -2 17
-10 -115 -62 -154 -60 -166 -59 -253 29 l-64 64 74 22 c41 12 108 32 149 45
73 23 138 42 151 44 4 1 12 -5 18 -12z m319 -97 l-3 -30 -28 24 c-16 14 -33
26 -38 28 -5 2 -4 19 2 39 l12 37 29 -34 c22 -24 28 -41 26 -64z m3285 49 c95
-28 174 -53 176 -55 3 -3 -24 -34 -59 -69 -60 -60 -68 -65 -108 -65 -41 0
-180 48 -209 72 -10 8 -11 25 -7 59 5 34 3 49 -5 49 -6 0 -2 13 11 30 12 17
23 30 25 30 2 0 81 -23 176 -51z m-3535 9 c18 -18 15 -56 -5 -66 -10 -6 -28
-6 -40 -1 -39 14 -25 79 17 79 9 0 21 -5 28 -12z m122 -24 c161 -84 260 -245
260 -420 0 -50 -7 -56 -49 -48 -48 10 -91 84 -91 157 0 32 -4 57 -10 57 -5 0
-10 -17 -10 -37 l0 -38 -31 50 c-26 43 -29 58 -26 108 3 60 -9 80 -16 25 l-4
-33 -13 33 c-17 38 -34 44 -20 6 16 -40 12 -46 -20 -29 -44 23 -36 4 11 -25
28 -17 50 -44 73 -87 19 -35 33 -63 31 -63 -1 0 -19 7 -40 16 -20 8 -42 13
-48 11 -7 -2 12 -14 42 -27 36 -16 63 -37 83 -64 16 -22 24 -42 19 -44 -6 -2
-11 -10 -11 -18 0 -15 -18 -14 -96 1 -34 7 -92 75 -111 130 -26 72 -23 375 4
375 3 0 36 -16 73 -36z m3195 -14 c8 -13 -4 -50 -16 -50 -11 0 -29 41 -22 53
6 10 31 9 38 -3z m-3310 -161 l-1 -91 -54 -29 c-87 -44 -115 -40 -183 29 l-58
59 143 61 c79 33 145 61 148 61 3 1 5 -40 5 -90z m3433 10 c53 -23 101 -44
105 -46 5 -3 -17 -32 -50 -65 -55 -57 -60 -59 -99 -55 -23 2 -60 15 -82 29
l-41 24 24 37 c15 22 26 52 27 77 1 22 5 40 10 40 5 0 53 -19 106 -41z m-2128
-17 c35 -36 55 -122 45 -201 -9 -69 -28 -108 -62 -124 -22 -10 -28 -8 -44 12
-63 77 -64 282 -2 329 24 17 31 15 63 -16z m-659 -83 c14 -26 -5 -59 -34 -59
-47 0 -63 48 -26 74 25 17 45 12 60 -15z m-631 -43 c0 -13 13 -49 29 -80 l30
-56 -62 -42 c-34 -22 -83 -57 -109 -75 l-48 -35 0 100 c0 94 2 103 26 132 23
27 104 78 127 80 4 0 7 -11 7 -24z m3345 -58 c14 -16 25 -38 26 -49 2 -81 0
-171 -3 -174 -5 -6 -231 149 -235 161 -2 5 19 24 46 41 27 18 54 45 60 62 l13
29 34 -20 c18 -11 45 -33 59 -50z m-2781 26 c120 -31 226 -108 272 -196 13
-25 13 -31 -2 -53 -10 -15 -14 -37 -12 -55 6 -40 -16 -39 -61 1 -31 29 -33 34
-29 80 6 60 -7 65 -16 7 l-7 -41 -39 38 c-37 36 -40 44 -42 95 l-1 55 -6 -45
-6 -45 -20 27 c-11 14 -25 34 -32 44 -6 11 -12 14 -12 8 -1 -6 10 -28 24 -48
l24 -36 -42 -1 -42 -1 52 -12 c36 -8 63 -22 88 -46 l36 -35 -48 -6 -48 -5 62
-8 c75 -10 114 -45 132 -120 7 -27 11 -50 9 -51 -2 -2 -32 8 -68 21 -58 22
-68 30 -89 70 -13 25 -50 69 -83 99 -52 48 -60 61 -73 117 -8 35 -15 84 -15
111 0 55 1 55 94 31z m266 -19 c80 -9 167 -20 195 -23 l50 -7 12 -69 c22 -118
79 -218 146 -253 18 -9 60 -16 101 -17 l71 -2 3 -48 3 -48 -38 7 c-21 5 -47 9
-58 10 -11 1 -32 9 -48 19 -15 10 -36 16 -48 13 -14 -4 -37 5 -67 27 -64 45
-108 63 -168 71 l-51 7 1 42 c1 37 -2 43 -32 58 -18 9 -46 36 -61 60 -34 53
-110 122 -171 154 -40 21 -42 23 -15 19 17 -2 95 -11 175 -20z m-363 -133 l10
-38 -49 24 c-45 22 -48 25 -48 63 l0 39 39 -25 c28 -19 42 -37 48 -63z m2864
-108 c34 -35 34 -36 39 -150 3 -63 3 -114 -1 -114 -5 0 -278 226 -308 255 -12
12 -9 20 23 55 29 33 36 47 32 66 -4 14 -4 29 -1 35 8 11 169 -99 216 -147z
m-3207 78 c-4 -21 -1 -40 10 -57 16 -25 16 -26 -15 -53 -18 -15 -87 -72 -153
-128 l-121 -101 -3 96 c-2 53 0 106 3 118 7 28 66 83 154 143 72 49 72 49 101
32 26 -15 29 -21 24 -50z m231 23 c43 -14 97 -37 120 -51 92 -53 175 -171 191
-270 6 -39 5 -42 -21 -47 -22 -4 -36 3 -71 35 -40 37 -44 45 -44 89 0 30 -4
49 -11 49 -8 0 -10 -14 -6 -40 3 -22 1 -40 -3 -40 -5 0 -27 21 -49 46 -36 41
-41 53 -41 95 0 29 -4 49 -11 49 -7 0 -10 -14 -7 -35 2 -19 1 -35 -3 -35 -3 0
-19 18 -34 40 -15 22 -30 38 -33 35 -3 -2 7 -22 22 -43 14 -21 26 -40 26 -43
0 -3 -17 -4 -37 -2 -36 2 -35 2 11 -12 32 -9 64 -28 92 -56 24 -24 44 -46 44
-49 0 -3 -19 -4 -41 -2 -26 3 -39 1 -36 -6 4 -5 29 -12 57 -14 64 -6 120 -53
112 -94 -4 -24 -8 -25 -46 -19 -77 12 -113 25 -153 54 -87 63 -130 157 -140
304 -7 103 -10 101 112 62z m1398 9 l37 -7 0 -478 0 -478 -25 -57 c-26 -60
-135 -228 -142 -220 -3 3 -6 1037 -3 1229 0 14 9 17 48 17 26 0 64 -3 85 -6z
m737 -53 c0 -42 -4 -51 -44 -90 -47 -47 -56 -43 -56 25 0 19 -5 34 -11 34 -8
0 -9 -17 -4 -56 6 -52 5 -58 -20 -84 -25 -26 -28 -27 -54 -14 -19 9 -37 11
-58 5 l-30 -9 12 41 c14 48 27 55 60 33 27 -18 30 -15 40 34 4 19 14 48 22 64
13 25 19 28 49 23 29 -5 34 -3 34 14 0 19 37 42 53 32 4 -2 7 -25 7 -52z m63
53 c3 -4 -4 -19 -16 -36 -19 -26 -22 -27 -29 -11 -14 36 -9 53 15 53 13 0 26
-3 30 -6z m104 -1 c-4 -3 0 -14 9 -24 14 -15 14 -22 -1 -67 -16 -48 -19 -51
-44 -46 -22 5 -33 0 -54 -26 -15 -17 -30 -42 -33 -55 -5 -20 -11 -23 -33 -19
-22 5 -33 0 -55 -26 -15 -18 -30 -46 -33 -61 -4 -23 -13 -31 -46 -40 -30 -8
-42 -7 -51 2 -8 9 -7 11 4 7 16 -6 20 7 21 63 0 40 48 80 103 86 57 7 71 23
19 23 l-38 0 46 46 c35 35 60 50 100 60 l54 14 -47 -4 c-51 -4 -51 -4 -14 47
16 22 28 27 60 27 21 0 36 -3 33 -7z m-2456 -13 c37 -20 15 -87 -27 -78 -9 2
-23 13 -31 25 -13 19 -12 24 6 42 24 24 26 24 52 11z m2219 0 c0 -5 -13 -10
-28 -10 -34 0 -59 -25 -77 -77 -12 -35 -16 -38 -52 -38 -36 0 -39 -2 -54 -47
-14 -44 -16 -46 -32 -31 -24 24 -66 7 -96 -40 -17 -25 -28 -34 -35 -27 -19 19
-54 10 -80 -21 -14 -17 -26 -35 -26 -40 0 -17 -19 -9 -25 12 -5 16 -12 19 -32
14 -14 -3 -38 -9 -54 -12 l-29 -5 0 166 0 166 310 0 c200 0 310 -4 310 -10z
m355 -110 c22 0 26 -4 21 -17 -9 -24 -50 -83 -57 -83 -3 0 -13 21 -22 48 -17
46 -17 33 -2 -45 5 -23 -2 -38 -37 -77 -36 -42 -43 -46 -49 -30 -4 11 -8 34
-8 52 -1 17 -5 32 -9 32 -5 0 -6 -26 -4 -59 4 -57 3 -59 -31 -85 -33 -26 -39
-27 -71 -15 -28 10 -41 10 -62 0 l-27 -12 7 43 c4 24 15 59 24 78 15 31 21 35
54 33 35 -2 38 0 47 34 6 19 18 44 27 54 18 20 59 25 69 9 10 -16 25 -1 25 25
0 13 4 35 10 49 l9 25 30 -29 c18 -18 40 -30 56 -30z m-2502 -143 c14 -29 39
-66 56 -84 l31 -31 -78 -94 c-93 -110 -152 -165 -198 -184 -21 -9 -71 -14
-139 -14 l-107 0 4 123 c3 118 4 123 34 167 34 48 277 258 322 276 l27 12 12
-59 c6 -33 23 -83 36 -112z m637 159 c6 -8 10 -25 8 -38 -2 -18 -10 -24 -35
-26 -28 -3 -33 1 -39 23 -11 45 37 75 66 41z m2258 -120 c85 -71 149 -134 170
-165 31 -49 33 -54 35 -166 l2 -115 -121 0 c-115 0 -122 1 -166 29 -47 30
-225 234 -245 282 -11 26 -10 28 31 43 58 22 84 51 69 75 -14 22 -8 31 19 31
31 0 71 47 64 76 -4 13 -4 24 0 24 3 0 67 -52 142 -114z m-268 99 c0 -4 -7
-19 -15 -35 -15 -28 -14 -30 15 -52 44 -32 37 -58 -27 -88 -51 -24 -53 -26
-47 -58 6 -30 3 -33 -30 -47 -19 -8 -46 -15 -58 -15 -41 0 -51 -13 -36 -45 11
-25 10 -29 -11 -46 -22 -18 -25 -18 -42 -3 -9 8 -36 18 -58 21 -37 5 -41 8
-41 34 0 44 68 96 139 106 l56 7 -42 6 -42 5 37 43 c30 35 45 44 80 49 23 3
45 10 49 16 4 7 -7 8 -30 4 -21 -3 -37 -4 -37 -1 0 3 11 22 25 42 14 20 25 42
25 49 0 9 15 13 45 13 25 0 45 -2 45 -5z m109 -8 c8 -11 5 -19 -15 -38 -25
-24 -26 -24 -40 -5 -8 11 -14 25 -14 32 0 24 51 32 69 11z m-1410 -659 c0
-252 -2 -458 -6 -458 -11 0 -107 144 -140 210 l-28 55 -3 280 c-2 154 0 321 3
371 l7 92 45 7 c50 7 79 31 96 78 11 29 13 22 18 -73 4 -58 7 -311 8 -562z
m1331 633 c0 -5 3 -16 6 -25 4 -11 0 -16 -14 -16 -27 0 -37 17 -22 35 14 17
30 20 30 6z m-1875 -62 c31 -11 72 -35 91 -51 29 -26 34 -36 29 -59 -5 -22 -1
-34 20 -55 17 -17 33 -24 46 -21 10 3 19 4 19 3 0 -1 -7 -23 -16 -49 l-16 -46
-43 21 c-36 18 -47 30 -69 81 -28 66 -48 73 -22 7 9 -22 12 -40 8 -40 -5 0
-29 13 -54 29 -37 24 -47 36 -57 74 -6 25 -16 49 -23 53 -8 5 -9 2 -5 -10 4
-10 10 -30 13 -44 l7 -27 -35 33 c-46 43 -61 41 -18 -3 l34 -35 -40 -1 c-38
-1 -37 -2 13 -10 32 -5 70 -21 98 -41 44 -31 45 -33 22 -36 -14 -2 -47 8 -74
21 -26 13 -64 29 -83 36 -19 6 -41 21 -49 33 -15 25 -51 125 -51 144 0 30 168
26 255 -7z m1129 -24 c15 -23 17 -24 52 -9 43 18 66 12 84 -21 12 -22 11 -29
-8 -55 -18 -24 -20 -33 -11 -48 10 -16 7 -25 -16 -56 -30 -39 -35 -42 -53 -24
-19 19 -59 -6 -83 -54 -27 -54 -24 -52 -48 -38 -18 9 -26 7 -51 -18 l-29 -30
-17 44 c-16 43 -16 45 2 60 14 10 33 13 73 8 37 -4 51 -2 47 5 -4 6 -16 11
-26 11 -35 0 -29 17 17 49 41 29 52 32 90 27 25 -3 43 -2 43 4 0 6 -13 10 -30
10 -38 0 -38 5 0 37 17 14 29 28 26 30 -3 3 -20 -7 -38 -22 l-33 -28 -10 44
-10 44 -3 -52 c-3 -50 -6 -55 -47 -83 -24 -16 -46 -30 -48 -30 -3 0 -8 16 -11
35 -9 48 -28 45 -20 -3 4 -29 2 -43 -11 -55 -26 -27 -39 -20 -59 29 -19 46
-19 47 2 90 26 53 52 69 78 49 27 -20 31 -19 50 18 32 60 71 73 98 32z m-1356
-103 c12 -19 10 -19 -60 -14 -40 2 -73 5 -74 6 -1 0 -4 17 -7 37 l-5 36 66
-23 c37 -13 73 -32 80 -42z m442 28 c24 -44 -38 -83 -70 -45 -10 12 -10 21 -2
40 14 31 56 34 72 5z m96 -21 c52 -13 58 -36 12 -41 -31 -3 -34 -7 -62 -88
-15 -47 -51 -148 -78 -224 -38 -109 -46 -141 -36 -147 13 -9 75 -23 158 -37
36 -6 46 -12 48 -30 4 -26 4 -26 -90 -7 -117 24 -198 47 -198 57 0 8 87 251
155 433 14 39 28 76 30 83 5 15 5 15 61 1z m539 -6 c91 -234 186 -497 182
-507 -9 -22 -265 -82 -281 -66 -20 20 4 38 59 45 67 8 155 33 154 43 0 4 -37
106 -82 227 -77 204 -84 220 -107 220 -42 1 -37 31 7 43 55 14 60 14 68 -5z
m-1041 -49 c83 -21 178 -79 254 -155 54 -54 62 -67 57 -89 -4 -14 -8 -26 -9
-27 -1 -2 -37 9 -80 23 -83 28 -111 50 -121 95 -4 16 -11 29 -17 29 -10 0 -8
-16 7 -54 7 -16 5 -17 -16 -11 -13 4 -43 18 -66 31 -34 20 -44 33 -59 76 -9
29 -19 47 -22 40 -2 -7 1 -26 7 -42 12 -36 7 -37 -35 -5 -48 37 -55 30 -10 -9
l39 -34 -31 -7 c-50 -10 -38 -20 20 -17 44 3 63 -2 107 -26 l54 -30 -44 -13
c-59 -16 -32 -24 31 -9 34 8 55 9 63 2 6 -5 44 -21 82 -35 69 -25 70 -26 67
-58 -3 -42 -7 -45 -27 -25 -23 22 -68 20 -91 -5 -16 -18 -26 -20 -72 -15 -129
15 -234 88 -295 203 -38 73 -64 149 -54 159 25 25 176 30 261 8z m-467 -5 c6
-6 36 -18 68 -28 32 -10 53 -21 46 -25 -6 -4 -11 -19 -11 -34 -1 -32 -72 -127
-120 -159 -29 -20 -46 -23 -138 -23 -99 0 -104 1 -90 18 8 9 61 72 117 140 56
67 105 122 110 122 4 0 12 -5 18 -11z m1992 -10 c18 -20 23 -20 50 -9 40 16
74 7 91 -25 12 -23 11 -28 -9 -56 -23 -30 -23 -32 -5 -64 24 -45 10 -61 -67
-77 -47 -10 -58 -15 -53 -28 23 -56 2 -74 -85 -68 -53 3 -56 2 -59 -22 -6 -51
-12 -55 -32 -22 -22 37 -87 60 -119 42 -25 -13 -31 -13 -31 0 0 15 126 70 159
70 16 0 42 -5 59 -11 17 -6 37 -9 44 -7 7 3 -5 10 -27 17 -22 7 -46 15 -54 17
-8 3 10 19 45 40 52 31 64 35 104 29 32 -4 41 -3 30 4 -8 6 -24 11 -35 11 -16
0 -12 7 20 40 21 22 34 40 29 40 -6 0 -23 -13 -39 -30 -16 -16 -32 -30 -37
-30 -4 0 -8 21 -8 47 0 25 -3 43 -7 39 -4 -3 -6 -24 -5 -45 3 -46 -14 -68 -82
-107 l-49 -28 6 47 c4 28 3 47 -3 47 -6 0 -10 -11 -10 -24 0 -57 -18 -80 -84
-108 l-65 -26 -14 36 c-16 39 -11 58 21 95 14 16 17 16 39 1 14 -8 26 -14 27
-12 2 2 15 29 29 61 22 48 30 57 51 57 15 0 26 -4 26 -10 0 -5 7 -10 15 -10 8
0 15 4 15 10 0 16 71 90 86 90 7 0 22 -10 33 -21z m570 -124 l110 -130 -110
-3 c-105 -3 -113 -1 -144 22 -41 31 -99 121 -91 141 3 8 1 26 -4 39 -8 23 -6
25 28 31 20 3 48 13 62 20 14 8 28 13 32 12 4 -1 57 -60 117 -132z m-2369 70
c29 -35 -14 -85 -54 -63 -19 11 -22 64 -3 71 23 10 45 7 57 -8z m586 -32 c41
-23 42 -24 31 -59 -6 -19 -14 -33 -18 -32 -9 4 -129 118 -129 123 0 11 79 -11
116 -32z m1384 -25 c0 -22 -17 -41 -29 -34 -15 10 -14 33 2 39 21 9 27 8 27
-5z m61 2 c27 -15 24 -38 -7 -46 -31 -8 -48 7 -39 35 7 23 17 26 46 11z
m-1978 -49 c28 -53 26 -61 -30 -90 -24 -12 -193 -15 -193 -4 0 5 19 36 42 70
28 41 46 59 52 53 15 -15 72 -12 86 5 7 8 14 15 15 15 2 0 14 -22 28 -49z
m2110 -31 l47 -70 -99 0 c-92 0 -102 2 -130 26 -44 36 -40 54 9 54 30 0 47 7
65 24 21 21 40 33 55 35 3 0 26 -31 53 -69z m-214 -82 c1 -18 -104 -138 -120
-138 -5 0 -15 15 -23 33 -12 29 -12 33 7 48 15 13 19 23 14 48 -6 27 -4 31 16
32 12 0 38 6 57 12 37 13 48 6 49 -35z m-1744 -50 c29 -13 31 -27 9 -70 l-16
-31 -59 59 c-47 46 -59 65 -59 90 0 17 3 34 7 37 3 4 26 -11 50 -33 23 -22 54
-46 68 -52z m303 -30 c16 -16 15 -53 -3 -68 -20 -17 -54 -3 -61 26 -11 42 34
72 64 42z m1031 0 c0 -7 -4 -21 -8 -31 -6 -17 -8 -17 -20 -3 -11 13 -11 19 -1
31 15 18 30 20 29 3z m246 -19 c13 -57 -2 -92 -64 -153 -32 -32 -63 -56 -69
-52 -14 8 -47 149 -36 153 40 14 59 32 62 56 3 25 6 27 52 27 46 0 49 -2 55
-31z m-1428 4 c78 -7 82 -18 45 -137 l-27 -88 -68 70 c-57 59 -67 75 -67 105
0 53 9 70 34 62 11 -3 49 -9 83 -12z m1245 0 c29 -26 22 -43 -17 -43 -36 0
-42 10 -29 44 8 20 23 20 46 -1z m-10 -77 c4 -6 13 -35 19 -65 17 -84 1 -125
-82 -205 -38 -36 -71 -66 -73 -66 -2 0 -10 33 -16 73 -7 39 -18 101 -26 137
-7 35 -11 67 -8 70 3 3 29 12 57 21 43 12 52 19 51 37 -1 20 3 22 35 16 20 -4
39 -12 43 -18z m-1099 0 c8 3 17 -1 20 -10 3 -8 30 -21 60 -30 l55 -16 -14
-72 c-8 -40 -19 -103 -26 -140 -6 -38 -14 -68 -17 -68 -4 0 -37 31 -74 68 -89
89 -101 135 -66 249 9 28 13 31 29 23 10 -5 25 -7 33 -4z m911 -154 c9 -45 16
-113 16 -150 l0 -68 -86 -87 c-48 -48 -88 -86 -89 -85 -6 6 -37 407 -33 429 3
21 12 25 83 39 44 9 83 13 86 10 4 -3 14 -42 23 -88z m-666 74 c40 -8 76 -17
79 -20 8 -8 -29 -446 -37 -446 -4 0 -43 37 -87 83 -104 107 -106 120 -57 365
7 37 5 36 102 18z m184 -231 c37 -56 73 -107 81 -113 12 -10 22 -3 55 40 49
65 112 164 112 176 0 5 6 14 13 20 19 16 41 -262 27 -336 -13 -70 -16 -74
-115 -172 l-86 -85 -88 90 c-84 86 -88 93 -100 154 -16 80 4 379 23 346 6 -10
41 -64 78 -120z"/>
<path d="M2510 4717 c-96 -44 -187 -91 -240 -125 -60 -38 -240 -172 -240 -179
0 -3 13 -2 28 2 34 7 158 -18 230 -46 l52 -21 21 25 c22 30 213 127 247 127
12 0 22 4 22 8 0 5 -13 48 -30 97 -16 49 -30 97 -30 106 0 27 -11 28 -60 6z"/>
<path d="M2811 4663 c-1 -47 -10 -54 -88 -78 -42 -13 -48 -12 -59 3 -21 26
-17 7 18 -95 28 -80 31 -98 21 -123 l-11 -30 27 29 c35 38 87 50 106 24 12
-15 13 2 8 117 -5 138 -20 241 -22 153z"/>
<path d="M2630 4645 c0 -5 5 -17 10 -25 5 -8 10 -10 10 -5 0 6 -5 17 -10 25
-5 8 -10 11 -10 5z"/>
<path d="M2656 4373 c-6 -14 -5 -15 5 -6 7 7 10 15 7 18 -3 3 -9 -2 -12 -12z"/>
<path d="M3406 4612 c-13 -42 -27 -85 -31 -94 -5 -13 -2 -18 11 -18 11 0 71
-26 134 -58 93 -46 115 -61 114 -78 0 -21 0 -21 59 3 33 13 87 30 121 37 l61
13 -53 49 c-30 27 -75 61 -100 76 -43 24 -233 122 -274 140 -15 6 -21 -5 -42
-70z"/>
<path d="M3330 4375 c0 -8 4 -15 10 -15 5 0 7 7 4 15 -4 8 -8 15 -10 15 -2 0
-4 -7 -4 -15z"/>
<path d="M3353 4318 c2 -7 9 -12 15 -11 6 2 32 -6 58 -17 66 -29 67 -17 1 14
-60 29 -81 32 -74 14z"/>
<path d="M4047 4274 c-4 -4 -7 -18 -7 -30 0 -26 -52 -90 -80 -99 -11 -3 -17
-12 -14 -20 8 -19 114 -124 118 -116 1 3 9 27 16 54 l13 47 46 1 c25 1 49 1
54 0 4 0 7 4 7 9 0 17 -144 162 -153 154z"/>
<path d="M3506 4254 c-5 -14 -4 -15 9 -4 17 14 19 20 6 20 -5 0 -12 -7 -15
-16z"/>
<path d="M3995 3820 c3 -5 8 -10 11 -10 2 0 4 5 4 10 0 6 -5 10 -11 10 -5 0
-7 -4 -4 -10z"/>
<path d="M4340 3985 c0 -15 54 -108 57 -99 2 6 -8 32 -23 57 -23 43 -34 56
-34 42z"/>
<path d="M2094 3135 c-29 -21 -129 -373 -111 -391 8 -8 326 -36 342 -30 15 5
16 18 13 84 -5 88 -73 317 -98 328 -29 14 -132 20 -146 9z"/>
<path d="M2005 2670 c-4 -17 -3 -35 1 -40 5 -4 59 -10 120 -14 l112 -6 5 32
c3 18 2 36 -2 40 -3 3 -56 10 -117 13 l-112 7 -7 -32z"/>
<path d="M2032 2593 c-16 -6 -42 -56 -42 -80 0 -10 9 1 19 24 11 22 28 44 40
48 43 13 71 -24 85 -115 2 -14 4 -6 5 18 2 83 -45 130 -107 105z"/>
<path d="M1985 2453 c3 -21 11 -42 15 -47 5 -5 5 7 -1 27 -5 21 -7 42 -4 47 3
6 1 10 -6 10 -8 0 -9 -12 -4 -37z"/>
<path d="M2120 2431 c0 -7 -15 -27 -32 -44 -23 -21 -26 -27 -10 -18 25 14 58
59 48 68 -3 3 -6 1 -6 -6z"/>
<path d="M2010 2385 c0 -2 10 -10 23 -16 20 -11 21 -11 8 4 -13 16 -31 23 -31
12z"/>
<path d="M3628 2620 c-79 -5 -109 -12 -97 -25 3 -2 89 -1 192 2 129 4 186 10
184 17 -4 12 -136 15 -279 6z"/>
<path d="M3952 2614 c2 -13 28 -17 153 -21 132 -4 148 -3 135 10 -11 11 -51
16 -153 20 -121 5 -138 4 -135 -9z"/>
<path d="M3588 2551 c-28 -5 -35 -9 -29 -19 11 -18 374 -6 368 12 -4 12 -269
17 -339 7z"/>
<path d="M3970 2545 c0 -13 22 -15 140 -15 118 0 140 2 140 15 0 13 -22 15
-140 15 -118 0 -140 -2 -140 -15z"/>
<path d="M4094 2492 c-106 -2 -112 -4 -107 -22 5 -19 12 -20 137 -14 72 4 132
8 134 9 10 8 -14 33 -31 32 -12 -1 -72 -3 -133 -5z"/>
<path d="M3702 2483 c-118 -4 -122 -4 -112 -23 9 -17 21 -20 83 -20 40 0 116
3 170 7 85 5 97 8 97 25 0 16 -7 18 -57 16 -32 -1 -113 -4 -181 -5z"/>
<path d="M4082 2423 c-82 -3 -93 -6 -90 -21 2 -11 12 -17 31 -16 15 0 74 1
132 2 98 2 105 3 105 22 0 17 -6 20 -42 18 -24 -1 -85 -4 -136 -5z"/>
<path d="M3722 2411 c-101 -5 -112 -8 -100 -22 11 -13 35 -15 166 -11 141 4
152 6 152 23 0 21 9 21 -218 10z"/>
<path d="M4107 2363 c-106 -3 -118 -6 -115 -21 3 -15 16 -17 123 -13 66 1 126
8 132 13 15 12 8 29 -10 26 -7 -1 -65 -4 -130 -5z"/>
<path d="M3748 2353 c-87 -3 -108 -7 -108 -18 0 -13 25 -15 150 -15 143 0 150
1 150 20 0 17 -6 20 -42 18 -24 -1 -91 -4 -150 -5z"/>
</g>
</svg>
